<svg version="1.1" id="Layer_1" xmlns="http://www.w3.org/2000/svg" xmlns:xlink="http://www.w3.org/1999/xlink" x="0px" y="0px"
	 width="100%" viewBox="0 0 500 500" enable-background="new 0 0 500 500" xml:space="preserve">
<path fill="#000000" opacity="1.000000" stroke="none" 
	d="
M268.000000,501.000000 
	C178.666687,501.000000 89.833374,501.000000 1.000032,501.000000 
	C1.000000,417.666718 1.000000,334.333405 1.000000,251.000122 
	C1.000000,167.666809 1.000000,84.333496 1.000000,1.000091 
	C84.333252,1.000000 167.666504,1.000000 250.999756,1.000000 
	C334.333069,1.000000 417.666382,1.000000 500.999756,1.000000 
	C500.999847,167.666519 500.999847,334.333038 500.999939,500.999786 
	C423.500000,501.000000 346.000000,501.000000 268.000000,501.000000 
M387.979401,109.889153 
	C387.979401,109.889153 387.923401,110.035797 387.970428,110.064102 
	C387.970428,110.064102 388.032562,109.927650 387.979401,109.889153 
M357.024414,134.074814 
	C357.024414,134.074814 357.062134,133.815994 357.026337,133.660034 
	C357.026337,133.660034 356.713287,133.621552 356.713287,133.621552 
	C356.713287,133.621552 356.950043,133.999008 357.024414,134.074814 
M391.270630,124.418167 
	C391.488403,124.632347 391.714844,124.836929 392.078888,125.458893 
	C392.337341,125.962013 392.595764,126.465126 392.854218,126.968246 
	C393.052734,126.833229 393.251282,126.698219 393.449799,126.563202 
	C392.976807,126.025398 392.503784,125.487587 391.735413,124.602882 
	C391.536072,124.373146 391.323181,124.156738 391.049255,123.832283 
	C391.049255,123.832283 390.814484,123.770508 390.814484,123.770508 
	C390.814484,123.770508 390.954010,124.089836 391.270630,124.418167 
M133.027390,380.718719 
	C133.027390,380.718719 132.722214,380.819946 132.722214,380.819946 
	C132.722214,380.819946 132.797653,381.114044 132.941254,381.721130 
	C133.523453,382.278107 134.105652,382.835052 134.831314,383.793030 
	C135.182983,383.950012 135.534653,384.106995 135.886322,384.263977 
	C135.689468,383.747711 135.492615,383.231476 134.977402,382.232971 
	C134.381744,381.752533 133.786087,381.272125 133.027390,380.718719 
M381.771301,119.098541 
	C381.691986,119.266586 381.612671,119.434624 381.533356,119.602684 
	C381.699036,119.411888 381.864716,119.221092 382.051849,118.994263 
	C382.051849,118.994263 381.972046,118.970619 381.771301,119.098541 
M387.998749,121.086983 
	C387.998749,121.086983 388.068085,120.940895 387.955750,120.606728 
	C387.735687,120.328888 387.515625,120.051048 387.295563,119.773209 
	C387.209473,119.844742 387.123352,119.916283 387.037262,119.987816 
	C387.339752,120.347404 387.642242,120.706993 387.998749,121.086983 
M139.987442,386.688873 
	C139.987442,386.688873 139.640335,386.806366 139.640335,386.806366 
	C139.640335,386.806366 139.791565,387.123657 139.962585,387.696564 
	C141.061508,387.554474 142.160416,387.412415 143.496948,387.111908 
	C143.623718,386.890411 143.750473,386.668884 143.877228,386.447388 
	C143.536331,386.571289 143.195450,386.695160 142.179489,386.830231 
	C141.504486,386.818665 140.829483,386.807098 139.987442,386.688873 
M368.016815,135.106888 
	C368.016815,135.106888 368.075409,134.960587 368.227234,134.486710 
	C368.312378,133.711792 368.397522,132.936874 368.482666,132.161942 
	C368.189453,132.168427 367.896240,132.174911 367.603058,132.181396 
	C367.723358,133.144241 367.843628,134.107086 368.016815,135.106888 
M376.974854,124.158775 
	C376.974854,124.158775 377.138916,123.949089 377.138916,123.949089 
	C377.138916,123.949089 376.906799,124.077202 376.974854,124.158775 
M366.504639,143.929626 
	C366.504639,143.929626 366.571320,143.985550 366.504639,143.929626 
M382.010834,144.518219 
	C382.010834,144.518219 382.001984,144.483307 382.010834,144.518219 
M130.642197,379.084503 
	C130.642197,379.084503 130.447876,378.818329 130.447876,378.818329 
	C130.447876,378.818329 130.475739,379.160675 130.642197,379.084503 
M368.517609,146.521759 
	C368.517609,146.521759 368.508179,146.481628 368.517609,146.521759 
M394.511566,148.536957 
	C394.511566,148.536957 394.489777,148.480667 394.511566,148.536957 
M373.510895,149.527954 
	C373.510895,149.527954 373.496490,149.482513 373.510895,149.527954 
M377.511475,151.534409 
	C377.511475,151.534409 377.491913,151.481049 377.511475,151.534409 
M389.509644,151.532913 
	C389.509644,151.532913 389.491364,151.481552 389.509644,151.532913 
M393.523895,136.485245 
	C393.523895,136.485245 393.484711,136.494827 393.523895,136.485245 
M381.486694,108.473244 
	C381.486694,108.473244 381.499329,108.517128 381.486694,108.473244 
M387.492828,142.460068 
	C387.492828,142.460068 387.516998,142.519318 387.492828,142.460068 
M372.545258,139.494659 
	C372.545258,139.494659 372.480896,139.523041 372.545258,139.494659 
M359.506989,135.534302 
	C359.506989,135.534302 359.486908,135.481140 359.506989,135.534302 
M395.516968,125.519547 
	C395.516968,125.519547 395.511475,125.485847 395.516968,125.519547 
M379.527222,110.486664 
	C379.527222,110.486664 379.483612,110.499107 379.527222,110.486664 
M379.522827,122.484085 
	C379.522827,122.484085 379.480377,122.494759 379.522827,122.484085 
z"/>
<path fill="#050505" opacity="1.000000" stroke="none" 
	d="
M367.963928,135.069931 
	C367.843628,134.107086 367.723358,133.144241 367.603058,132.181396 
	C367.896240,132.174911 368.189453,132.168427 368.482666,132.161942 
	C368.397522,132.936874 368.312378,133.711792 368.125946,134.753525 
	C368.024658,135.020340 367.963959,135.069931 367.963928,135.069931 
z"/>
<path fill="#121212" opacity="1.000000" stroke="none" 
	d="
M143.259323,387.270325 
	C142.160416,387.412415 141.061508,387.554474 139.968384,387.328705 
	C139.974167,386.960846 140.154480,386.795563 140.154480,386.795563 
	C140.829483,386.807098 141.504486,386.818665 142.618225,386.937439 
	C143.056946,387.044678 143.259323,387.270325 143.259323,387.270325 
z"/>
<path fill="#050505" opacity="1.000000" stroke="none" 
	d="
M392.030792,124.949783 
	C392.503784,125.487587 392.976807,126.025398 393.449799,126.563202 
	C393.251282,126.698219 393.052734,126.833229 392.854218,126.968246 
	C392.595764,126.465126 392.337341,125.962013 392.035522,125.225754 
	C391.992126,124.992607 392.030792,124.949783 392.030792,124.949783 
z"/>
<path fill="#050505" opacity="1.000000" stroke="none" 
	d="
M387.944733,121.066574 
	C387.642242,120.706993 387.339752,120.347404 387.037262,119.987816 
	C387.123352,119.916283 387.209473,119.844742 387.295563,119.773209 
	C387.515625,120.051048 387.735687,120.328888 387.983002,120.807129 
	C388.010254,121.007523 387.944733,121.066574 387.944733,121.066574 
z"/>
<path fill="#050505" opacity="1.000000" stroke="none" 
	d="
M382.030396,119.030289 
	C381.864716,119.221092 381.699036,119.411888 381.533325,119.602676 
	C381.612671,119.434624 381.691986,119.266586 381.886780,119.048950 
	C382.002289,118.999359 382.030365,119.030281 382.030396,119.030289 
z"/>
<path fill="#050505" opacity="1.000000" stroke="none" 
	d="
M376.940826,124.117989 
	C376.906799,124.077202 377.138916,123.949089 377.138916,123.949089 
	C377.138916,123.949089 376.974854,124.158775 376.940826,124.117989 
z"/>
<path fill="#121212" opacity="1.000000" stroke="none" 
	d="
M142.955750,386.931854 
	C143.195450,386.695160 143.536331,386.571289 143.877228,386.447388 
	C143.750473,386.668884 143.623718,386.890411 143.378143,387.191101 
	C143.259323,387.270325 143.056946,387.044678 142.955750,386.931854 
z"/>
<path fill="#121212" opacity="1.000000" stroke="none" 
	d="
M135.295761,382.715210 
	C135.492615,383.231476 135.689468,383.747711 135.886322,384.263977 
	C135.534653,384.106995 135.182983,383.950012 134.912109,383.422852 
	C134.992920,383.052673 135.295761,382.715210 135.295761,382.715210 
z"/>
<path fill="#121212" opacity="1.000000" stroke="none" 
	d="
M133.190430,380.791687 
	C133.786087,381.272125 134.381744,381.752533 135.136581,382.474091 
	C135.295761,382.715210 134.992920,383.052673 134.840393,383.222351 
	C134.105652,382.835052 133.523453,382.278107 132.967651,381.337036 
	C132.994064,380.952911 133.190430,380.791687 133.190430,380.791687 
z"/>
<path fill="#050505" opacity="1.000000" stroke="none" 
	d="
M366.537964,143.957581 
	C366.571320,143.985550 366.504639,143.929626 366.537964,143.957581 
z"/>
<path fill="#050505" opacity="1.000000" stroke="none" 
	d="
M382.006409,144.500763 
	C382.001984,144.483307 382.010834,144.518219 382.006409,144.500763 
z"/>
<path fill="#050505" opacity="1.000000" stroke="none" 
	d="
M390.954010,124.089836 
	C390.954010,124.089836 390.814484,123.770508 390.814484,123.770508 
	C390.814484,123.770508 391.049255,123.832283 391.035278,123.924919 
	C391.021301,124.017555 390.954010,124.089836 390.954010,124.089836 
z"/>
<path fill="#121212" opacity="1.000000" stroke="none" 
	d="
M130.558960,379.122589 
	C130.475739,379.160675 130.447876,378.818329 130.447876,378.818329 
	C130.447876,378.818329 130.642197,379.084503 130.558960,379.122589 
z"/>
<path fill="#050505" opacity="1.000000" stroke="none" 
	d="
M356.950043,133.999008 
	C356.950043,133.999008 356.713287,133.621552 356.713287,133.621552 
	C356.713287,133.621552 357.026337,133.660034 357.025146,133.789246 
	C357.023956,133.918442 356.950043,133.999008 356.950043,133.999008 
z"/>
<path fill="#121212" opacity="1.000000" stroke="none" 
	d="
M132.895859,381.033478 
	C132.797653,381.114044 132.722214,380.819946 132.722214,380.819946 
	C132.722214,380.819946 133.027390,380.718719 133.108917,380.755188 
	C133.190430,380.791687 132.994064,380.952911 132.895859,381.033478 
z"/>
<path fill="#050505" opacity="1.000000" stroke="none" 
	d="
M368.512878,146.501694 
	C368.508179,146.481628 368.517609,146.521759 368.512878,146.501694 
z"/>
<path fill="#050505" opacity="1.000000" stroke="none" 
	d="
M394.500671,148.508820 
	C394.489777,148.480667 394.511566,148.536957 394.500671,148.508820 
z"/>
<path fill="#050505" opacity="1.000000" stroke="none" 
	d="
M373.503693,149.505234 
	C373.496490,149.482513 373.510895,149.527954 373.503693,149.505234 
z"/>
<path fill="#050505" opacity="1.000000" stroke="none" 
	d="
M377.501709,151.507721 
	C377.491913,151.481049 377.511475,151.534409 377.501709,151.507721 
z"/>
<path fill="#050505" opacity="1.000000" stroke="none" 
	d="
M389.500488,151.507233 
	C389.491364,151.481552 389.509644,151.532913 389.500488,151.507233 
z"/>
<path fill="#050505" opacity="1.000000" stroke="none" 
	d="
M393.504303,136.490036 
	C393.484711,136.494827 393.523895,136.485245 393.504303,136.490036 
z"/>
<path fill="#121212" opacity="1.000000" stroke="none" 
	d="
M139.882874,387.042236 
	C139.791565,387.123657 139.640335,386.806366 139.640335,386.806366 
	C139.640335,386.806366 139.987442,386.688873 140.070953,386.742218 
	C140.154480,386.795563 139.974167,386.960846 139.882874,387.042236 
z"/>
<path fill="#050505" opacity="1.000000" stroke="none" 
	d="
M381.493011,108.495186 
	C381.499329,108.517128 381.486694,108.473244 381.493011,108.495186 
z"/>
<path fill="#050505" opacity="1.000000" stroke="none" 
	d="
M387.504913,142.489685 
	C387.516998,142.519318 387.492828,142.460068 387.504913,142.489685 
z"/>
<path fill="#050505" opacity="1.000000" stroke="none" 
	d="
M372.513062,139.508850 
	C372.480896,139.523041 372.545258,139.494659 372.513062,139.508850 
z"/>
<path fill="#050505" opacity="1.000000" stroke="none" 
	d="
M388.032562,109.927650 
	C388.032562,109.927650 387.970428,110.064102 387.971619,110.020325 
	C387.972839,109.976540 388.032562,109.927650 388.032562,109.927650 
z"/>
<path fill="#050505" opacity="1.000000" stroke="none" 
	d="
M368.050049,134.990463 
	C368.075409,134.960587 368.016815,135.106888 367.990387,135.088409 
	C367.963959,135.069931 368.024658,135.020340 368.050049,134.990463 
z"/>
<path fill="#050505" opacity="1.000000" stroke="none" 
	d="
M359.496948,135.507721 
	C359.486908,135.481140 359.506989,135.534302 359.496948,135.507721 
z"/>
<path fill="#050505" opacity="1.000000" stroke="none" 
	d="
M357.043030,133.867218 
	C357.062134,133.815994 357.024414,134.074814 356.987244,134.036911 
	C356.950043,133.999008 357.023956,133.918442 357.043030,133.867218 
z"/>
<path fill="#050505" opacity="1.000000" stroke="none" 
	d="
M387.948120,110.006165 
	C387.923401,110.035797 387.979401,109.889153 388.005981,109.908401 
	C388.032562,109.927650 387.972839,109.976540 387.948120,110.006165 
z"/>
<path fill="#050505" opacity="1.000000" stroke="none" 
	d="
M395.514221,125.502701 
	C395.511475,125.485847 395.516968,125.519547 395.514221,125.502701 
z"/>
<path fill="#050505" opacity="1.000000" stroke="none" 
	d="
M379.505432,110.492889 
	C379.483612,110.499107 379.527222,110.486664 379.505432,110.492889 
z"/>
<path fill="#050505" opacity="1.000000" stroke="none" 
	d="
M391.971039,125.012268 
	C391.714844,124.836929 391.488403,124.632347 391.112305,124.253998 
	C390.954010,124.089836 391.021301,124.017555 391.059021,123.985596 
	C391.323181,124.156738 391.536072,124.373146 391.883118,124.776337 
	C392.030792,124.949783 391.992126,124.992607 391.971039,125.012268 
z"/>
<path fill="#050505" opacity="1.000000" stroke="none" 
	d="
M379.501587,122.489426 
	C379.480377,122.494759 379.522827,122.484085 379.501587,122.489426 
z"/>
<path fill="#050505" opacity="1.000000" stroke="none" 
	d="
M388.039185,120.974213 
	C388.068085,120.940895 387.998749,121.086983 387.971741,121.076782 
	C387.944733,121.066574 388.010254,121.007523 388.039185,120.974213 
z"/>
<path fill="#050505" opacity="1.000000" stroke="none" 
	d="
M381.987183,118.984985 
	C381.972046,118.970619 382.051849,118.994263 382.041107,119.012268 
	C382.030365,119.030281 382.002289,118.999359 381.987183,118.984985 
z"/>
</svg>