<?xml version="1.0" standalone="no"?>
<!DOCTYPE svg PUBLIC "-//W3C//DTD SVG 20010904//EN"
 "http://www.w3.org/TR/2001/REC-SVG-20010904/DTD/svg10.dtd">
<svg version="1.0" xmlns="http://www.w3.org/2000/svg"
 width="300.000000pt" height="300.000000pt" viewBox="0 0 300.000000 300.000000"
 preserveAspectRatio="xMidYMid meet">
<metadata>
Created by potrace 1.10, written by Peter Selinger 2001-2011
</metadata>
<g transform="translate(0.000000,300.000000) scale(0.100000,-0.100000)"
fill="#000000" stroke="none">
<path d="M1318 2612 c-21 -4 -21 -8 -6 -140 11 -94 14 -103 33 -100 17 3 20
10 19 46 -1 47 -1 47 25 30 27 -16 78 7 98 45 12 25 13 37 4 68 -17 55 -70 76
-123 48 -12 -6 -23 -7 -27 -2 -3 5 -14 7 -23 5z m120 -44 c28 -28 2 -88 -38
-88 -11 0 -27 11 -36 25 -24 36 -6 75 34 75 15 0 33 -5 40 -12z"/>
<path d="M1548 2596 c-21 -19 -28 -34 -28 -63 0 -21 4 -43 8 -49 16 -24 59
-44 92 -44 43 0 63 12 55 33 -5 11 -15 14 -39 10 -35 -5 -76 10 -76 29 0 7 22
9 70 4 l70 -6 0 27 c-1 45 -30 74 -81 80 -37 4 -48 1 -71 -21z m93 -25 c32
-26 19 -35 -38 -26 l-48 7 24 19 c29 24 33 24 62 0z"/>
<path d="M1757 2592 c-3 -4 -9 -25 -13 -47 -4 -22 -13 -54 -21 -72 -18 -44
-17 -50 11 -55 22 -5 26 0 36 43 13 53 23 65 60 71 15 2 26 11 28 22 3 16 -1
18 -27 14 -17 -2 -31 -1 -31 3 0 12 -38 30 -43 21z"/>
<path d="M966 2567 c-17 -12 -15 -20 34 -118 29 -57 54 -105 55 -107 2 -2 12
1 23 7 20 11 19 15 -34 121 -30 60 -56 110 -58 110 -1 0 -10 -6 -20 -13z"/>
<path d="M1155 2573 c-68 -18 -90 -109 -37 -156 61 -55 178 9 158 86 -13 55
-65 85 -121 70z m67 -57 c24 -36 -12 -94 -52 -81 -41 13 -46 83 -8 98 17 7 51
-3 60 -17z"/>
<path d="M2041 2477 c-12 -31 -19 -33 -47 -13 -18 13 -21 12 -32 -4 -9 -15 -7
-20 18 -30 28 -12 28 -13 14 -36 -9 -13 -13 -28 -9 -34 7 -11 35 -14 35 -2 0
4 4 13 9 21 7 10 13 11 31 1 18 -10 25 -9 37 3 14 13 13 16 -8 27 -33 17 -32
16 -19 40 10 18 9 25 -4 38 -14 14 -16 13 -25 -11z"/>
<path d="M873 2433 c-41 -21 -67 -72 -53 -107 30 -80 120 -88 177 -16 33 42
-1 55 -41 15 -25 -25 -60 -33 -70 -16 -3 4 19 25 49 45 60 42 62 56 10 80 -39
19 -32 19 -72 -1z m54 -34 c9 -9 3 -18 -23 -35 -42 -29 -44 -29 -44 -5 0 11
10 27 22 35 27 19 31 19 45 5z"/>
<path d="M2245 2322 c-27 -26 -65 -60 -84 -75 l-34 -28 24 -27 c86 -97 134
-119 191 -85 45 26 72 75 64 117 -5 28 -90 144 -106 145 -3 0 -27 -21 -55 -47z
m115 -109 c0 -31 -42 -73 -74 -73 -14 0 -41 14 -61 32 l-36 31 58 52 57 52 28
-35 c15 -19 28 -46 28 -59z"/>
<path d="M741 2336 c-8 -10 -5 -27 14 -70 14 -31 25 -61 25 -65 0 -5 -22 2
-50 15 -58 28 -68 29 -94 9 -19 -14 -19 -15 0 -21 10 -4 52 -19 93 -35 70 -26
74 -27 92 -10 18 17 18 19 -19 104 -20 47 -40 87 -43 87 -4 0 -12 -6 -18 -14z"/>
<path d="M574 2126 c-49 -49 -42 -111 16 -141 41 -21 83 -12 115 27 32 37 35
89 5 81 -13 -3 -20 -14 -20 -28 0 -13 -11 -30 -26 -40 -43 -28 -47 -4 -7 54
34 51 35 55 17 68 -30 22 -64 15 -100 -21z m74 -13 c-17 -36 -45 -73 -55 -73
-18 0 -16 46 3 64 15 16 59 23 52 9z"/>
<path d="M2414 2096 c-3 -8 4 -25 15 -37 12 -13 21 -31 21 -40 0 -21 -22 -37
-28 -20 -8 25 -55 71 -72 71 -53 0 -62 -65 -15 -106 13 -12 21 -24 18 -27 -2
-3 -2 -15 2 -26 6 -21 7 -21 53 6 93 52 105 83 58 153 -28 42 -43 50 -52 26z
m-24 -96 c18 -25 19 -31 6 -36 -33 -13 -73 35 -49 59 12 12 21 7 43 -23z"/>
<path d="M437 1960 c-27 -22 -83 -148 -70 -160 4 -5 46 -21 93 -38 47 -16 92
-33 100 -36 11 -5 20 9 37 58 32 91 30 121 -11 162 -29 29 -41 34 -79 34 -29
0 -53 -7 -70 -20z m127 -63 c19 -26 19 -30 5 -70 -8 -23 -19 -41 -24 -40 -6 1
-38 12 -72 24 l-62 22 15 35 c23 55 33 63 77 60 30 -2 45 -10 61 -31z"/>
<path d="M2500 1915 c-5 -14 -17 -25 -27 -25 -33 0 -83 -38 -83 -63 0 -33 30
-73 41 -56 5 8 6 22 3 31 -4 12 6 22 37 37 43 21 59 20 59 -5 0 -8 9 -14 21
-14 18 0 20 4 15 25 -5 19 -2 27 12 33 15 5 18 12 11 30 -7 18 -14 21 -34 16
-15 -4 -25 -2 -25 5 0 21 -20 11 -30 -14z"/>
<path d="M2440 1750 c-23 -23 -25 -51 -8 -83 7 -12 11 -34 9 -49 -2 -26 -1
-27 31 -22 79 14 109 26 124 49 28 43 -3 136 -40 122 -16 -6 -16 -8 0 -32 10
-16 14 -34 10 -50 -9 -37 -32 -31 -39 11 -7 39 -32 74 -54 74 -7 0 -22 -9 -33
-20z m53 -37 c2 -5 7 -20 11 -35 5 -24 3 -28 -14 -28 -21 0 -41 35 -33 58 6
13 29 16 36 5z"/>
<path d="M380 1606 c0 -18 13 -45 36 -72 l35 -44 -70 0 c-67 0 -71 -1 -71 -23
0 -23 2 -23 123 -26 l122 -2 1 25 c2 21 -3 25 -30 28 -43 4 -43 28 -1 57 26
18 35 31 35 52 0 26 -14 40 -22 21 -1 -4 -21 -22 -44 -39 l-41 -32 -37 41 -36
42 0 -28z"/>
<path d="M2450 1478 c0 -22 6 -31 21 -35 19 -5 21 -11 16 -61 -5 -54 -17 -72
-47 -72 -9 0 -16 -10 -18 -26 -1 -14 -7 -34 -13 -46 -13 -23 -7 -30 41 -48 69
-26 87 -57 49 -84 -20 -13 -27 -13 -73 5 -48 18 -52 18 -63 2 -7 -9 -13 -19
-13 -22 0 -3 31 -16 70 -29 54 -18 74 -21 89 -12 26 13 41 41 41 74 0 13 4 26
9 28 4 2 11 12 15 24 5 18 -2 23 -64 42 -38 13 -72 27 -74 31 -3 5 29 18 72
31 42 12 94 27 114 33 26 8 39 19 43 35 3 14 5 26 3 27 -2 1 -51 32 -110 68
l-108 66 0 -31z m160 -119 c0 -4 -12 -10 -27 -13 -16 -4 -36 -9 -45 -12 -15
-4 -18 1 -18 29 0 18 3 36 6 40 7 7 84 -34 84 -44z"/>
<path d="M507 1400 c-3 -10 1 -24 9 -31 17 -14 18 -51 2 -67 -17 -17 -63 -15
-78 3 -8 9 -10 28 -6 49 8 41 -10 58 -31 30 -22 -29 -10 -94 22 -121 39 -34
99 -27 132 16 20 25 15 85 -8 115 -24 31 -35 33 -42 6z"/>
<path d="M513 1209 c-38 -18 -64 -37 -65 -47 -3 -37 4 -69 24 -100 18 -29 23
-32 35 -19 12 12 11 19 -8 51 -20 34 -20 39 -6 53 15 15 17 13 33 -26 26 -66
78 -79 102 -25 10 20 9 31 -3 54 -9 17 -19 30 -23 30 -4 0 -8 12 -7 27 0 14
-4 27 -10 29 -5 2 -38 -10 -72 -27z m72 -49 c19 -21 14 -50 -9 -50 -19 0 -40
36 -32 56 7 19 20 18 41 -6z"/>
<path d="M633 1069 c-9 -9 -10 -16 -2 -26 16 -19 6 -37 -35 -61 -34 -20 -35
-20 -41 -1 -7 20 -30 26 -40 9 -4 -6 -1 -18 6 -26 11 -13 10 -18 -4 -26 -13
-7 -16 -16 -11 -31 9 -30 11 -32 29 -17 11 9 19 10 27 2 15 -15 40 -3 34 17
-4 11 9 25 42 46 55 35 63 61 30 99 -18 22 -26 25 -35 15z"/>
<path d="M2320 1030 c-19 -19 -24 -32 -21 -56 1 -7 -8 -14 -19 -17 -35 -9 -22
-31 41 -66 54 -30 63 -32 89 -21 18 8 37 28 50 54 25 52 25 52 1 59 -15 3 -21
-2 -26 -22 -9 -35 -23 -51 -46 -51 -24 0 -24 8 1 45 25 38 25 71 1 85 -29 15
-49 12 -71 -10z m53 -34 c3 -7 -2 -25 -12 -39 -13 -21 -20 -24 -29 -15 -15 15
-15 41 0 56 16 16 35 15 41 -2z"/>
<path d="M660 920 c-25 -25 -25 -28 4 -94 20 -46 22 -57 11 -66 -20 -17 -51 4
-66 44 -9 25 -17 32 -31 28 -22 -5 -22 -14 -3 -52 33 -63 104 -90 138 -52 22
24 21 49 -3 97 -22 44 -25 61 -10 70 18 11 58 -23 71 -60 9 -23 19 -35 29 -33
24 5 22 30 -6 75 -42 63 -96 81 -134 43z"/>
<path d="M2121 874 c-17 -14 -31 -31 -31 -38 0 -7 17 -65 38 -130 36 -112 39
-116 55 -98 17 18 16 22 -4 76 -12 31 -20 59 -17 62 3 2 30 -9 60 -25 54 -30
56 -30 72 -12 16 18 13 20 -74 61 -92 44 -105 60 -70 82 20 13 28 48 11 48 -5
0 -23 -12 -40 -26z"/>
<path d="M2210 885 c-7 -9 -11 -17 -9 -18 2 -1 45 -37 95 -79 86 -72 93 -76
107 -60 15 16 9 23 -73 95 -49 42 -93 77 -98 77 -5 0 -15 -7 -22 -15z"/>
<path d="M784 745 c-4 -8 6 -25 23 -39 32 -29 33 -29 53 -16 12 8 9 15 -20 39
-40 34 -48 37 -56 16z"/>
<path d="M930 719 c-7 -12 -36 -55 -66 -97 -30 -41 -54 -79 -54 -83 0 -5 8
-13 19 -18 16 -9 27 2 85 90 37 56 66 102 64 103 -2 1 -11 7 -20 14 -14 11
-18 10 -28 -9z"/>
<path d="M2002 703 c-62 -30 -78 -88 -31 -113 14 -8 27 -7 48 5 40 20 63 19
59 -2 -2 -10 -18 -22 -36 -28 -24 -7 -32 -15 -32 -32 0 -20 3 -21 26 -13 53
20 84 50 84 79 0 37 -22 55 -57 47 -63 -16 -83 -18 -83 -8 0 14 46 42 70 42
13 0 20 7 20 20 0 25 -23 26 -68 3z"/>
<path d="M1010 682 c0 -4 -25 -52 -55 -106 -30 -55 -54 -100 -52 -101 1 0 9
-6 18 -13 15 -11 24 0 79 95 57 99 60 108 44 120 -20 15 -34 17 -34 5z"/>
<path d="M1061 567 c-32 -84 -32 -97 -2 -97 13 0 24 15 37 53 17 46 23 52 50
55 21 2 33 -2 37 -12 6 -14 -8 -71 -27 -117 -5 -12 -1 -18 18 -21 23 -5 27 0
46 58 12 35 19 73 15 84 -9 29 -50 53 -80 48 -16 -3 -25 -1 -25 7 0 7 -9 15
-19 18 -16 4 -24 -8 -50 -76z"/>
<path d="M1825 618 c-29 -16 -29 -16 -15 -33 9 -11 17 -12 31 -5 14 8 21 6 33
-12 27 -44 30 -69 7 -75 -23 -6 -25 -11 -12 -32 8 -13 12 -13 26 -1 17 14 27
7 38 -24 1 -5 13 -6 24 -2 19 6 21 11 13 32 -6 15 -6 24 0 24 6 0 10 9 10 21
0 15 -5 19 -18 15 -14 -5 -21 2 -31 31 -24 69 -58 88 -106 61z"/>
<path d="M1384 519 c-7 -40 -7 -41 -43 -34 -20 3 -43 8 -52 11 -11 3 -18 -3
-22 -16 -5 -21 6 -27 68 -32 26 -3 30 -7 33 -35 4 -37 -5 -39 -85 -24 -40 8
-43 7 -43 -14 0 -20 7 -23 53 -29 28 -4 66 -9 82 -12 l31 -5 13 88 c7 48 15
100 18 116 5 24 2 27 -21 27 -22 0 -27 -5 -32 -41z"/>
<path d="M1620 500 c8 -28 7 -30 -20 -30 -15 0 -30 -6 -33 -14 -8 -19 1 -26
35 -26 23 0 28 -4 28 -25 0 -20 5 -25 23 -25 20 0 23 4 19 30 -4 28 -2 30 28
30 25 0 31 3 26 16 -3 9 -6 20 -6 25 0 5 -10 5 -24 -1 -28 -10 -36 -5 -36 27
0 18 -6 23 -24 23 -23 0 -24 -3 -16 -30z"/>
</g>
</svg>
